#!OML:ASF H:\ManfredETheater\Project 1\Capture day 1\Session 1\subject.ASF
:FULLY-SPECIFIED
:DEGREES
98
root -5.82422 15.7556 -9.97494 -174.646 -61.111 -168.939
lowerback 12.459 -1.89745 -1.98919
upperback -0.581345 -2.68817 2.17513
thorax -7.42022 -1.20025 3.93533
lowerneck -16.7211 -2.03351 -3.73901
upperneck 9.78376 -2.17179 2.10245
head 5.74177 -1.03753 1.05992
rclavicle 9.93923e-016 7.95139e-015
rhumerus -69.9215 -4.14523 -76.7337
rradius 66.058
rwrist -15.0208
rhand -30.3711 7.85964
rfingers 7.12502
rthumb -3.67582 -22.0884
lclavicle 9.93923e-016 7.95139e-015
lhumerus -38.6926 -12.2027 99.5035
lradius 124.352
lwrist 9.95357
lhand -20.2703 -12.6386
lfingers 7.12502
lthumb 6.07883 17.2542
rfemur -54.1496 -14.6419 3.60304
rtibia 71.5091
rfoot -3.10535 -15.7214
rtoes -32.2413
lfemur -7.53936 -1.73672 -26.7228
ltibia 53.722
lfoot -23.5678 -8.57342
ltoes 0.745443
99
root -6.23617 15.8268 -10.4135 -174.42 -60.7539 -169.552
lowerback 11.8764 -2.03165 -2.21732
upperback -0.650115 -2.88944 2.17464
thorax -7.13648 -1.29514 4.07013
lowerneck -16.6464 -1.69841 -3.58386
upperneck 10.3571 -1.72692 1.84306
head 5.89505 -0.837675 0.996151
rclavicle 3.89618e-014 1.59028e-015
rhumerus -70.4937 -3.65199 -76.7013
rradius 67.0376
rwrist -14.7973
rhand -30.0537 8.10534
rfingers 7.12502
rthumb -3.36933 -21.8478
lclavicle 3.89618e-014 1.59028e-015
lhumerus -39.4417 -11.8611 98.7509
lradius 124.685
lwrist 9.86011
lhand -20.2463 -12.7192
lfingers 7.12502
lthumb 6.10207 17.1729
rfemur -54.8844 -14.3191 3.51779
rtibia 66.8054
rfoot -2.15417 -15.2097
rtoes -32.4653
lfemur -4.3294 -2.47691 -26.5017
ltibia 51.0108
lfoot -20.1384 -8.84868
ltoes -2.01232
100
root -6.6552 15.8931 -10.8546 -174.238 -60.3781 -170.13
lowerback 11.23 -2.15582 -2.3995
upperback -0.718497 -3.06776 2.17273
thorax -6.81887 -1.38244 4.16668
lowerneck -16.5872 -1.38138 -3.45575
upperneck 10.9696 -1.30224 1.60757
head 6.06649 -0.648762 0.942744
rclavicle 4.57205e-014 7.95139e-016
rhumerus -71.0199 -3.21376 -76.5907
rradius 67.9991
rwrist -14.4944
rhand -29.7846 8.31574
rfingers 7.12502
rthumb -3.10945 -21.6413
lclavicle 4.57205e-014 7.95139e-016
lhumerus -40.271 -11.4809 98.0279
lradius 124.806
lwrist 9.75383
lhand -20.2004 -12.7878
lfingers 7.12502
lthumb 6.14632 17.103
rfemur -55.3508 -14.0448 3.54767
rtibia 61.8874
rfoot -0.653103 -14.5262
rtoes -32.886
lfemur -1.14848 -3.31052 -26.407
ltibia 48.3047
lfoot -16.6457 -8.97978
ltoes -3.77558
101
root -7.07875 15.951 -11.2981 -174.057 -60.009 -170.719
lowerback 10.5248 -2.2719 -2.56368
upperback -0.784115 -3.23002 2.16647
thorax -6.46645 -1.46442 4.23923
lowerneck -16.5534 -1.08415 -3.34952
upperneck 11.6126 -0.898983 1.38189
head 6.25466 -0.472543 0.894365
rclavicle -3.02153e-014 -7.15625e-015
rhumerus -71.4943 -2.83274 -76.3887
rradius 68.9532
rwrist -14.1313
rhand -29.5609 8.49317
rfingers 7.12502
rthumb -2.89345 -21.4669
lclavicle -3.02153e-014 -7.15625e-015
lhumerus -41.1552 -11.0962 97.3346
lradius 124.712
lwrist 9.5771
lhand -20.1198 -12.8425
lfingers 7.12502
lthumb 6.22419 17.046
rfemur -55.5769 -13.8253 3.63996
rtibia 56.8335
rfoot 1.46248 -13.7225
rtoes -33.4058
lfemur 1.97487 -4.26284 -26.4791
ltibia 45.6812
lfoot -13.3817 -8.9264
ltoes -4.69362
102
root -7.49886 15.984 -11.7455 -173.838 -59.6859 -171.352
lowerback 9.77964 -2.38864 -2.73104
upperback -0.849231 -3.39057 2.15868
thorax -6.09001 -1.54695 4.3062
lowerneck -16.5467 -0.808702 -3.26397
upperneck 12.2696 -0.518053 1.15353
head 6.4545 -0.310593 0.84681
rclavicle -2.52457e-014 2.8625e-014
rhumerus -71.9087 -2.5036 -76.088
rradius 69.9126
rwrist -13.7233
rhand -29.3603 8.64706
rfingers 7.12502
rthumb -2.69971 -21.3156
lclavicle -2.52457e-014 2.8625e-014
lhumerus -42.0625 -10.7321 96.6811
lradius 124.405
lwrist 9.28761
lhand -20.003 -12.8812
lfingers 7.12502
lthumb 6.33689 17.004
rfemur -55.6648 -13.6633 3.73985
rtibia 51.8014
rfoot 4.16806 -12.9487
rtoes -33.9392
lfemur 4.96841 -5.344 -26.7298
ltibia 43.3174
lfoot -10.6094 -8.65883
ltoes -4.85512
103
root -7.92164 16.0148 -12.1925 -173.538 -59.4351 -172.064
lowerback 9.01606 -2.50732 -2.93829
upperback -0.921078 -3.55522 2.15037
thorax -5.70676 -1.63106 4.39158
lowerneck -16.5753 -0.555362 -3.19173
upperneck 12.9317 -0.159209 0.911447
head 6.66449 -0.163523 0.795326
rclavicle 3.91606e-014 -5.96354e-015
rhumerus -72.2646 -2.22036 -75.6872
rradius 70.8949
rwrist -13.2899
rhand -29.1953 8.78976
rfingers 7.12502
rthumb -2.54028 -21.1749
lclavicle 3.91606e-014 -5.96354e-015
lhumerus -42.9764 -10.4295 96.0687
lradius 123.904
lwrist 8.88994
lhand -19.8451 -12.9083
lfingers 7.12502
lthumb 6.48937 16.9723
rfemur -55.5281 -13.5438 3.80035
rtibia 46.8429
rfoot 7.20553 -12.3977
rtoes -34.4289
lfemur 7.76794 -6.52817 -27.1741
ltibia 41.3131
lfoot -8.44278 -8.17399
ltoes -4.46981
104
root -8.34017 16.0308 -12.6402 -173.143 -59.3062 -172.878
lowerback 8.27221 -2.63818 -3.20093
upperback -1.00269 -3.73906 2.14101
thorax -5.33876 -1.72322 4.50762
lowerneck -16.6303 -0.328817 -3.12463
upperneck 13.5798 0.170338 0.650347
head 6.87726 -0.0348009 0.735995
rclavicle -5.93372e-014 4.65156e-014
rhumerus -72.5616 -1.97997 -75.1903
rradius 71.9084
rwrist -12.8422
rhand -29.0461 8.92746
rfingers 7.12502
rthumb -2.39622 -21.0388
lclavicle -5.93372e-014 4.65156e-014
lhumerus -43.874 -10.2227 95.503
lradius 123.225
lwrist 8.40973
lhand -19.6799 -12.9567
lfingers 7.12502
lthumb 6.64882 16.9189
rfemur -55.2509 -13.4688 3.76025
rtibia 42.1473
rfoot 10.2837 -12.2177
rtoes -34.7889
lfemur 10.275 -7.76237 -27.765
ltibia 39.8863
lfoot -6.95683 -7.54786
ltoes -3.78151
105
root -8.75234 16.0336 -13.0873 -172.629 -59.3286 -173.822
lowerback 7.59159 -2.78488 -3.54411
upperback -1.09946 -3.94966 2.12774
thorax -5.01329 -1.82574 4.66882
lowerneck -16.7051 -0.134581 -3.0635
upperneck 14.2008 0.461954 0.379325
head 7.08753 0.0724645 0.670732
rclavicle 2.49475e-014 -4.13472e-014
rhumerus -72.8065 -1.78149 -74.607
rradius 72.9575
rwrist -12.3839
rhand -28.921 9.06484
rfingers 7.12502
rthumb -2.27542 -20.9028
lclavicle 2.49475e-014 -4.13472e-014
lhumerus -44.7357 -10.139 94.9878
lradius 122.392
lwrist 7.8948
lhand -19.5211 -13.0288
lfingers 7.12502
lthumb 6.80215 16.8419
rfemur -54.8355 -13.4165 3.56442
rtibia 37.822
rfoot 13.1157 -12.5109
rtoes -35.117
lfemur 12.4131 -8.96949 -28.4478
ltibia 39.1616
lfoot -6.08392 -6.83642
ltoes -3.12588
106
root -9.15667 16.0255 -13.5332 -172.016 -59.5267 -174.882
lowerback 7.00491 -2.9449 -3.97777
upperback -1.20401 -4.18426 2.12104
thorax -4.73763 -1.9369 4.89288
lowerneck -16.7958 0.0171041 -3.01132
upperneck 14.7729 0.703398 0.0937607
head 7.28761 0.152406 0.596834
rclavicle 2.78299e-014 -2.74323e-014
rhumerus -72.9909 -1.63702 -73.9306
rradius 74.0365
rwrist -11.9245
rhand -28.8349 9.20765
rfingers 7.12502
rthumb -2.19229 -20.7608
lclavicle 2.78299e-014 -2.74323e-014
lhumerus -45.5296 -10.1995 94.5486
lradius 121.425
lwrist 7.38971
lhand -19.3934 -13.1396
lfingers 7.12502
lthumb 6.92539 16.7271
rfemur -54.3192 -13.3645 3.19484
rtibia 34.071
rfoot 15.4692 -13.2664
rtoes -35.5689
lfemur 14.0805 -10.0715 -29.1251
ltibia 39.3134
lfoot -5.7191 -6.14484
ltoes -2.58799
107
root -9.55217 16.0082 -13.9773 -171.365 -59.9158 -176.005
lowerback 6.55005 -3.11704 -4.46329
upperback -1.31219 -4.43954 2.11756
thorax -4.53071 -2.05547 5.15692
lowerneck -16.8991 0.117008 -2.97349
upperneck 15.2907 0.878337 -0.177902
head 7.4748 0.200237 0.522354
rclavicle 9.88954e-015 2.50469e-014
rhumerus -73.1215 -1.56744 -73.184
rradius 75.1309
rwrist -11.4738
rhand -28.7991 9.34142
rfingers 7.12502
rthumb -2.15773 -20.6274
lclavicle 9.88954e-015 2.50469e-014
lhumerus -46.2474 -10.415 94.1825
lradius 120.35
lwrist 6.92629
lhand -19.2899 -13.279
lfingers 7.12502
lthumb 7.02527 16.5844
rfemur -53.7268 -13.2908 2.66855
rtibia 31.0644
rfoot 17.3083 -14.3459
rtoes -35.7999
lfemur 15.2355 -11.0307 -29.6924
ltibia 40.4024
lfoot -5.69477 -5.56364
ltoes -2.23539
108
root -9.93879 15.9831 -14.4201 -170.762 -60.4895 -177.108
lowerback 6.23903 -3.29604 -4.96288
upperback -1.41134 -4.70702 2.12465
thorax -4.38827 -2.17821 5.44786
lowerneck -17.0014 0.159422 -2.95804
upperneck 15.7326 0.977925 -0.423607
head 7.639 0.213535 0.451204
rclavicle 8.16508e-014 2.38542e-015
rhumerus -73.1938 -1.57507 -72.389
rradius 76.216
rwrist -11.0439
rhand -28.8344 9.46104
rfingers 7.12502
rthumb -2.19175 -20.5074
lclavicle 8.16508e-014 2.38542e-015
lhumerus -46.8789 -10.7611 93.8932
lradius 119.187
lwrist 6.51505
lhand -19.21 -13.4511
lfingers 7.12502
lthumb 7.10243 16.4097
rfemur -53.1065 -13.2056 2.07873
rtibia 28.9628
rfoot 18.7207 -15.4487
rtoes -36.1406
lfemur 15.8799 -11.8305 -30.0587
ltibia 42.4077
lfoot -5.8921 -5.13391
ltoes -2.14493
